<svg width="72" height="72" viewBox="0 0 72 72" fill="none" xmlns="http://www.w3.org/2000/svg">
<circle cx="36" cy="36" r="36" fill="#333333"/>
<path d="M29.4434 53V22.0625H36.4746C38.1035 22.0625 39.3105 22.3672 40.0957 22.9766C40.8926 23.5742 41.4141 24.4707 41.6602 25.666C41.9062 26.8496 42.0293 28.3203 42.0293 30.0781C42.0293 31.9531 41.8359 33.4355 41.4492 34.5254C41.0742 35.6035 40.3242 36.3125 39.1992 36.6523C39.75 36.7461 40.207 36.9805 40.5703 37.3555C40.9453 37.7188 41.2383 38.2812 41.4492 39.043C41.6719 39.793 41.8301 40.7891 41.9238 42.0312C42.0176 43.2617 42.0645 44.7969 42.0645 46.6367C42.0645 46.8008 42.0645 47.1055 42.0645 47.5508C42.0645 47.9961 42.0645 48.5 42.0645 49.0625C42.0762 49.625 42.0879 50.1875 42.0996 50.75C42.123 51.3008 42.1465 51.7812 42.1699 52.1914C42.2051 52.6016 42.2461 52.8711 42.293 53H38.2148C38.1797 52.918 38.1445 52.6602 38.1094 52.2266C38.0859 51.7812 38.0625 51.207 38.0391 50.5039C38.0156 49.8008 37.998 49.0098 37.9863 48.1309C37.9863 47.2402 37.9863 46.3027 37.9863 45.3184C37.9863 44.3223 37.9863 43.3145 37.9863 42.2949C37.9863 41.2285 37.9277 40.4199 37.8105 39.8691C37.6934 39.3066 37.4531 38.9199 37.0898 38.709C36.7266 38.4863 36.1699 38.3516 35.4199 38.3047L33.5215 38.1992V53H29.4434ZM33.5391 35.123H35.666C36.2988 35.123 36.7793 34.9941 37.1074 34.7363C37.4473 34.4668 37.6758 33.957 37.793 33.207C37.9219 32.457 37.9863 31.3496 37.9863 29.8848V29.6914C37.9863 28.4609 37.9277 27.5293 37.8105 26.8965C37.6934 26.2637 37.459 25.8359 37.1074 25.6133C36.7676 25.3789 36.2461 25.2617 35.543 25.2617H33.5391V35.123Z" fill="white"/>
</svg>
